<svg width="852" height="1006" viewBox="0 0 852 1006" fill="none" xmlns="http://www.w3.org/2000/svg">
<path d="M742.449 0H108.782C48.7987 0 0 48.6222 0 108.396V581.924C0 673.527 70.6059 772.736 209.854 876.796C309.847 951.514 408.253 1000.83 412.389 1002.89C416.557 1004.96 421.086 1006 425.623 1006C430.152 1006 434.682 1004.96 438.849 1002.89C442.986 1000.83 541.392 951.522 641.385 876.796C780.633 772.736 851.231 673.527 851.231 581.924V108.396C851.231 48.6222 802.432 0 742.449 0Z" fill="url(#paint0_linear_3489_635)"/>
<path d="M403.17 310.79C413.643 310.79 420.543 321.681 416.055 331.125L264.475 650.078C262.114 655.045 257.098 658.212 251.59 658.212H173.595C163.122 658.212 156.222 647.321 160.71 637.877L312.29 318.924C314.651 313.956 319.667 310.79 325.175 310.79H403.17ZM475.251 196.867C480.764 196.867 485.783 200.039 488.142 205.013L693.313 637.739C697.791 647.183 690.89 658.062 680.423 658.062H602.644C597.131 658.062 592.111 654.892 589.753 649.918L384.581 217.19C380.104 207.747 387.005 196.867 397.472 196.867H475.251ZM414.72 485.553C420.377 477.382 432.455 477.382 438.112 485.553L495.309 568.169C501.84 577.604 495.087 590.493 483.611 590.493H369.221C357.745 590.493 350.992 577.604 357.523 568.169L414.72 485.553Z" fill="white"/>
<defs>
<linearGradient id="paint0_linear_3489_635" x1="685.321" y1="807.156" x2="57.148" y2="22.1704" gradientUnits="userSpaceOnUse">
<stop offset="0.259564" stop-color="#4C008E"/>
<stop offset="0.974705" stop-color="#3F8BEE"/>
</linearGradient>
</defs>
</svg>
